<?xml version="1.0" standalone="no"?>
<!DOCTYPE svg PUBLIC "-//W3C//DTD SVG 20010904//EN"
 "http://www.w3.org/TR/2001/REC-SVG-20010904/DTD/svg10.dtd">
<svg version="1.0" xmlns="http://www.w3.org/2000/svg"
 width="1200.000000pt" height="761.000000pt" viewBox="0 0 1200.000000 761.000000"
 preserveAspectRatio="xMidYMid meet">
<metadata>
Created by potrace 1.15, written by Peter Selinger 2001-2017
</metadata>
<g transform="translate(0.000000,761.000000) scale(0.100000,-0.100000)"
fill="#000000" stroke="none">
<path d="M3640 7129 c-41 -33 -73 -65 -72 -72 2 -7 0 -9 -4 -4 -4 4 -18 0 -32
-9 -32 -21 -47 -13 -50 26 -3 35 -41 116 -42 88 0 -9 4 -19 10 -23 5 -3 6 -13
3 -22 -4 -11 -3 -14 5 -9 7 4 12 3 12 -3 0 -17 -18 -22 -24 -6 -3 8 -12 12
-21 9 -19 -8 -20 -24 0 -24 8 0 15 -5 15 -11 0 -6 -9 -9 -20 -6 -11 3 -20 1
-20 -4 0 -5 -9 -9 -20 -9 -11 0 -20 6 -20 14 0 8 -7 16 -15 20 -10 4 -15 -1
-15 -14 0 -14 -5 -18 -17 -13 -14 5 -15 1 -10 -27 4 -18 7 -41 7 -52 0 -10 5
-16 10 -13 14 9 13 -8 -2 -23 -7 -7 -9 -12 -5 -12 4 0 3 -9 -3 -19 -5 -11 -6
-21 -1 -23 11 -4 22 -246 26 -559 2 -135 9 -299 15 -365 7 -65 13 -139 15
-164 2 -24 8 -46 14 -48 6 -2 9 -7 6 -12 -3 -5 2 -16 11 -24 12 -13 41 -16
145 -17 71 -1 134 -3 139 -4 6 -1 22 -3 38 -4 21 -1 24 -3 12 -11 -12 -8 -10
-10 10 -11 17 0 9 -5 -23 -14 -27 -7 -61 -12 -75 -10 -15 2 -70 5 -122 7 l-95
3 4 -40 c1 -22 6 -42 10 -45 20 -14 52 -73 47 -85 -3 -8 -2 -14 2 -14 20 3 33
-2 27 -11 -3 -5 -1 -10 6 -10 15 0 69 -62 63 -72 -3 -4 1 -8 8 -8 8 0 21 -9
31 -20 9 -11 12 -20 6 -20 -18 0 13 -24 61 -47 59 -28 149 -63 165 -63 6 0 52
-16 101 -35 49 -19 90 -35 91 -35 1 0 -23 50 -53 111 -30 61 -54 113 -52 115
2 2 26 -3 53 -10 28 -8 57 -15 65 -17 30 -8 40 -39 13 -39 -14 0 -15 -2 -5 -9
8 -4 13 -11 13 -15 -3 -18 0 -20 9 -6 8 12 10 11 10 -7 0 -13 5 -23 11 -23 7
0 8 7 4 18 -14 31 -18 72 -7 72 16 0 218 -57 422 -120 69 -21 136 -40 150 -43
14 -2 167 -50 340 -105 173 -54 360 -112 415 -127 55 -15 138 -40 185 -55 99
-33 276 -83 475 -135 146 -39 176 -52 153 -66 -7 -5 -24 -9 -38 -9 -20 0 -22
-2 -10 -10 12 -8 10 -10 -10 -10 -14 0 -31 9 -38 20 -14 23 -50 26 -76 7 -14
-10 -17 -23 -14 -45 5 -34 -1 -39 -20 -20 -9 9 -12 9 -12 -1 0 -7 -4 -9 -10
-6 -5 3 -18 2 -28 -4 -12 -6 -47 -2 -115 14 -53 13 -101 26 -107 30 -6 4 -8
-10 -4 -39 6 -42 5 -44 -15 -39 -12 3 -21 2 -19 -3 1 -5 -4 -20 -11 -34 -13
-24 -28 -42 -87 -105 -15 -16 -30 -43 -34 -60 -7 -32 -8 -29 -51 128 -9 33
-14 38 -32 34 -12 -3 -78 -8 -147 -12 -69 -3 -186 -10 -260 -15 -124 -9 -552
-32 -830 -45 -63 -3 -140 -8 -170 -10 -70 -7 -369 -22 -670 -35 -129 -5 -302
-14 -385 -19 -82 -6 -258 -15 -390 -22 -132 -6 -244 -15 -248 -19 -12 -11 12
-173 28 -189 12 -12 19 -12 52 2 37 16 123 21 241 14 52 -4 71 -16 72 -44 0
-7 11 -24 26 -38 26 -26 24 -48 -4 -43 -9 2 -25 -5 -34 -14 -10 -10 -32 -18
-48 -18 -38 0 -64 -29 -67 -74 -1 -30 2 -36 28 -45 21 -7 29 -17 29 -33 0 -13
3 -40 6 -61 6 -31 4 -37 -12 -37 -10 0 -37 -9 -60 -20 -42 -21 -288 -65 -311
-56 -6 3 -13 22 -15 43 l-3 38 -70 -3 c-38 -1 -111 -7 -162 -13 -78 -9 -96 -8
-122 5 -16 9 -40 16 -51 16 -12 0 -81 27 -153 61 -73 33 -137 63 -143 65 -8 4
-11 -9 -9 -36 2 -36 -1 -43 -26 -55 -38 -20 -76 -72 -84 -118 -6 -32 -9 -35
-19 -21 -7 9 -22 14 -37 12 -34 -4 -39 -52 -8 -69 20 -10 25 -9 41 11 l18 22
6 -32 c10 -49 73 -110 115 -111 81 -3 137 24 161 77 11 24 42 32 53 14 11 -17
23 -11 29 15 7 29 32 33 39 8 3 -10 6 -67 6 -126 1 -82 -2 -113 -14 -130 -17
-24 -20 -52 -6 -42 6 3 5 -9 -1 -27 -15 -48 -13 -77 10 -101 25 -27 36 -147
12 -132 -6 3 -10 -4 -10 -17 0 -13 -3 -47 -7 -77 -4 -39 -3 -52 5 -47 6 4 9
13 6 20 -3 8 -1 17 5 21 7 4 12 -7 13 -29 1 -20 3 -48 4 -63 6 -75 6 -140 0
-160 -4 -12 -2 -24 4 -28 5 -3 10 -31 10 -62 0 -46 -3 -54 -16 -49 -9 3 -18 6
-20 6 -2 0 -4 12 -4 27 0 18 -13 38 -40 63 -35 32 -40 35 -46 18 -3 -11 -10
-15 -17 -11 -7 4 -6 -1 2 -11 12 -14 12 -23 2 -53 -8 -22 -10 -38 -4 -44 25
-25 -30 -160 -67 -166 -13 -2 -31 -13 -41 -25 -23 -26 -24 -32 -4 -24 13 5 13
2 -1 -19 -17 -26 -10 -50 13 -41 8 4 11 1 7 -5 -3 -6 -14 -9 -23 -6 -14 3 -16
-1 -13 -24 3 -19 10 -29 22 -29 23 0 46 28 42 52 -2 10 4 21 13 24 26 10 30
-4 9 -34 -22 -30 -25 -58 -5 -54 7 1 10 -2 6 -8 -4 -6 -2 -17 4 -24 7 -8 11
-18 10 -22 -6 -36 27 -47 52 -18 10 13 10 17 -1 24 -8 5 -11 12 -8 16 4 3 15
-1 24 -11 12 -12 19 -13 24 -5 5 8 9 4 13 -9 4 -18 2 -20 -19 -15 -17 4 -26 1
-30 -10 -7 -20 30 -54 68 -62 15 -4 29 -15 33 -28 6 -18 8 -19 12 -4 8 31 23
19 23 -17 0 -31 -3 -35 -25 -35 -14 0 -25 5 -25 10 0 6 -7 10 -15 10 -7 0 -18
6 -22 13 -4 8 -22 22 -40 32 -29 17 -37 17 -87 5 -52 -12 -57 -16 -64 -49 -7
-31 -8 -69 -3 -154 1 -26 55 -77 81 -77 16 0 26 11 37 40 11 27 22 40 35 40
10 0 18 -4 18 -10 0 -5 5 -10 12 -10 15 0 241 -153 289 -195 19 -18 61 -47 92
-66 62 -37 72 -51 57 -79 -28 -52 11 -120 70 -120 40 0 58 34 41 81 -17 50
-14 64 22 80 24 11 33 21 35 44 4 39 -11 53 -174 163 -92 62 -132 95 -138 115
-14 40 0 48 106 59 127 13 157 1 184 -72 15 -40 28 -57 56 -74 43 -24 56 -17
67 36 l7 33 74 1 c41 1 120 12 175 24 148 33 154 33 169 21 7 -6 16 -24 19
-40 5 -23 19 -36 69 -63 35 -19 77 -43 94 -53 30 -18 31 -18 75 6 l44 24 5 70
c7 89 11 95 56 88 32 -5 36 -4 32 13 -2 11 -13 20 -26 22 -25 4 -30 22 -6 22
14 0 16 7 11 39 -3 22 -12 54 -21 72 -9 18 -16 47 -16 66 0 19 -7 66 -17 106
-9 40 -16 106 -16 147 1 277 5 390 14 390 5 0 9 -4 9 -9 0 -5 6 -16 13 -23 7
-7 27 -42 44 -78 17 -36 38 -72 47 -79 9 -7 16 -22 16 -33 0 -22 30 -78 42
-78 4 0 8 -16 8 -35 0 -19 4 -35 9 -35 4 0 25 14 46 30 21 17 44 30 51 30 7 0
27 15 45 33 68 68 119 95 119 62 0 -8 -9 -15 -19 -15 -27 0 -36 -19 -16 -33 9
-8 14 -19 10 -29 -7 -17 -86 -80 -142 -113 -18 -11 -33 -23 -33 -27 0 -12 -38
-10 -45 2 -25 41 -62 -49 -67 -162 -2 -39 -7 -68 -14 -68 -5 0 -17 30 -26 67
-14 59 -15 70 -2 84 20 22 18 39 -5 39 -12 0 -21 9 -25 25 -8 31 -26 33 -26 3
0 -11 13 -73 29 -137 15 -64 36 -150 45 -191 15 -65 39 -147 102 -345 22 -71
78 -168 130 -226 24 -27 44 -55 44 -62 0 -23 84 -95 172 -146 48 -28 93 -51
100 -51 7 0 58 19 113 41 202 83 273 111 415 165 80 31 149 59 155 63 10 8 53
25 325 128 79 30 149 58 155 63 6 5 84 36 175 70 91 34 217 83 280 110 63 26
159 63 213 81 53 18 97 38 97 44 0 7 -31 45 -70 84 -44 45 -80 94 -99 134 -38
81 -103 272 -140 417 -48 182 -166 906 -186 1130 -3 41 -9 89 -12 105 -3 21
-2 27 6 20 6 -6 22 -86 36 -178 14 -92 34 -213 45 -269 10 -57 31 -184 45
-283 32 -222 62 -360 125 -583 28 -95 50 -180 50 -188 0 -8 4 -14 9 -14 6 0
11 24 13 53 3 59 6 60 85 26 l46 -20 -8 -77 c-11 -112 -8 -188 9 -223 13 -27
13 -30 1 -25 -26 10 -16 -13 24 -54 21 -22 47 -40 57 -40 11 0 33 -9 49 -20
17 -11 49 -30 72 -41 24 -11 54 -34 68 -51 29 -35 96 -70 109 -58 4 4 33 -1
64 -11 31 -11 62 -17 69 -15 7 3 25 1 39 -4 14 -6 39 -12 57 -16 18 -3 41 -14
52 -24 35 -32 136 -72 206 -81 36 -4 91 -18 120 -30 30 -11 69 -27 88 -34 18
-6 36 -16 40 -22 3 -5 43 -18 89 -28 46 -11 82 -25 82 -32 0 -6 10 -15 23 -19
12 -3 40 -15 62 -25 22 -10 67 -25 100 -34 58 -16 91 -28 127 -46 10 -5 26 -9
36 -9 10 0 22 -4 28 -8 5 -5 29 -14 54 -21 25 -6 54 -16 65 -21 53 -25 376
-126 498 -156 76 -19 166 -45 200 -58 129 -50 235 -86 312 -107 44 -12 85 -25
91 -30 6 -5 31 -16 55 -25 121 -45 238 -35 373 32 49 24 95 44 102 44 8 0 14
5 14 11 0 5 8 9 18 7 9 -1 22 0 27 4 15 9 153 12 200 3 52 -9 221 -11 310 -3
39 3 80 6 93 7 16 1 22 7 22 24 0 25 28 57 49 57 27 0 527 152 580 176 68 32
110 66 137 112 16 28 39 46 98 75 43 21 76 40 73 43 -3 3 -49 -7 -103 -21 -90
-24 -113 -36 -114 -57 0 -5 -10 -8 -22 -8 -13 0 -48 -7 -78 -16 -68 -20 -117
-29 -109 -20 5 5 113 40 155 49 18 4 44 28 44 40 0 7 -4 7 -12 -1 -7 -7 -27
-12 -44 -12 -18 0 -36 -5 -39 -10 -3 -6 -22 -10 -41 -10 -19 0 -34 -4 -34 -10
0 -5 -19 -10 -43 -10 -24 0 -47 -4 -53 -10 -5 -5 -25 -12 -44 -15 -55 -8 -233
-55 -253 -66 -10 -5 -28 -7 -40 -4 -15 4 -18 3 -9 -3 11 -7 11 -10 -2 -15 -9
-4 -22 -4 -29 -1 -8 3 -20 -2 -27 -11 -16 -19 -40 -20 -40 0 0 32 -17 13 -18
-21 -1 -30 1 -35 16 -29 24 11 209 65 252 75 19 4 71 17 115 30 109 30 140 35
131 21 -4 -6 -12 -11 -19 -11 -11 0 -90 -24 -353 -106 l-142 -44 -83 35 c-46
19 -88 34 -94 33 -5 -2 -32 8 -60 21 -57 26 -83 37 -107 45 -10 3 -18 15 -18
27 0 18 4 20 25 15 22 -6 25 -3 25 20 0 25 2 26 33 20 128 -27 202 -36 226
-28 15 5 61 9 102 8 58 -1 91 5 154 27 186 66 305 104 440 139 22 6 51 14 65
19 14 4 54 13 90 20 36 7 78 18 94 27 21 10 44 12 80 7 67 -8 50 10 -27 30
-32 8 -71 24 -86 36 -27 20 -30 20 -53 5 -14 -9 -27 -13 -30 -10 -4 3 -31 3
-62 -1 -53 -7 -56 -9 -56 -36 0 -16 -6 -29 -12 -30 -26 -1 -63 -10 -103 -23
-22 -8 -58 -17 -80 -21 -22 -4 -64 -15 -93 -26 -57 -21 -97 -25 -87 -9 3 6 1
10 -5 10 -7 0 -10 -6 -7 -13 3 -7 -3 -24 -13 -37 l-18 -23 -58 17 c-33 10 -71
20 -86 23 -16 3 -28 8 -28 12 -1 3 -5 107 -10 230 -5 123 -11 225 -13 227 -2
2 -50 14 -107 27 -105 22 -138 43 -113 68 8 8 35 6 108 -10 91 -20 122 -20
110 -1 -3 4 -49 16 -102 26 -131 24 -134 27 -131 133 l3 86 60 6 c33 3 53 6
44 7 -9 1 -26 11 -38 21 -21 18 -21 26 -19 157 3 158 -7 144 101 129 47 -6 57
-5 57 8 0 15 -4 16 -143 38 -44 7 -80 17 -82 23 -2 6 -8 93 -14 192 -11 198
-5 254 28 254 20 0 35 25 25 42 -4 6 4 8 22 4 16 -3 36 -2 44 4 13 8 13 13 2
31 -17 27 -7 37 42 41 41 3 64 28 27 28 -39 0 -111 -24 -111 -37 0 -8 -11 -18
-24 -23 -16 -6 -26 -19 -30 -45 -6 -30 -10 -34 -22 -25 -8 7 -14 25 -14 41 0
26 -3 28 -47 31 l-48 3 3 81 c3 67 1 82 -12 87 -14 6 -14 10 -4 27 11 17 23
20 91 20 100 0 118 -9 110 -55 -5 -34 -5 -35 26 -35 46 0 71 16 71 45 0 18 -5
25 -19 25 -11 0 -23 4 -26 10 -4 6 5 10 19 10 14 0 26 -4 26 -9 0 -11 55 -18
255 -30 256 -15 392 -14 524 5 41 6 114 -9 135 -28 6 -4 -30 -9 -80 -9 -95 -1
-155 -6 -162 -13 -7 -8 -2 -221 8 -308 6 -46 10 -87 10 -93 0 -5 5 -3 10 5 8
13 10 12 10 -2 0 -10 5 -18 11 -18 5 0 7 5 4 10 -3 6 4 15 17 20 13 6 42 22
66 35 23 14 58 26 77 27 20 1 38 5 41 10 3 4 23 8 44 8 21 0 40 5 42 10 2 6
21 13 43 17 22 3 47 11 55 18 8 7 27 15 42 19 32 7 191 165 184 182 -3 7 4 25
16 39 12 16 21 44 23 70 1 25 8 51 15 60 10 12 10 18 2 26 -7 5 -10 6 -7 3 11
-15 -17 -32 -46 -27 -32 5 -189 -24 -203 -37 -5 -5 -15 -6 -22 -3 -8 3 -14 -1
-14 -10 0 -14 -20 -27 -41 -27 -5 0 -9 10 -8 23 1 60 -55 574 -64 585 -9 11
-104 12 -526 7 -284 -4 -540 -10 -569 -14 -36 -6 -55 -4 -62 4 -5 6 -21 128
-35 271 -13 142 -26 270 -27 284 l-3 25 -100 -4 c-55 -1 -103 -5 -106 -7 -4
-2 -121 -13 -260 -24 -503 -40 -760 -61 -1124 -90 -577 -48 -875 -71 -1520
-120 -77 -6 -169 -13 -204 -16 l-64 -6 6 -151 c4 -84 10 -164 13 -179 l6 -27
-118 -3 c-66 -2 -128 0 -139 3 -19 6 -21 20 -32 200 -13 224 -11 234 66 298
78 65 128 76 341 76 l184 0 6 30 c6 29 37 95 44 95 2 0 -1 -18 -6 -40 -6 -23
-8 -44 -4 -47 9 -9 104 -4 149 8 42 11 192 32 647 89 173 21 349 44 390 49 41
6 120 15 175 21 135 14 162 17 290 34 61 8 137 17 170 20 33 3 98 10 145 16
47 5 130 15 185 20 93 10 426 48 610 70 44 5 127 14 185 20 58 6 139 15 180
21 41 5 98 11 125 13 28 2 90 10 138 17 104 14 95 2 132 173 27 125 34 145 59
165 25 21 11 28 -46 25 -50 -4 -51 -3 -19 7 19 6 45 9 58 6 13 -2 23 -1 23 3
0 11 97 30 154 30 50 0 52 1 61 33 9 28 14 32 45 32 30 0 35 -4 38 -25 2 -16
-7 -36 -25 -55 -33 -36 -53 -77 -53 -108 1 -15 7 -7 21 25 12 26 28 49 37 53
18 7 72 -41 72 -64 1 -14 2 -14 13 -1 7 9 22 16 35 17 17 1 22 -4 22 -22 0
-13 -4 -27 -10 -30 -14 -9 -12 -25 3 -25 8 0 22 -18 32 -39 19 -44 13 -101
-11 -101 -9 0 -25 -5 -37 -12 -21 -11 -21 -11 -2 -19 28 -11 105 -11 105 0 0
5 -7 11 -15 15 -31 12 -16 32 21 29 46 -3 48 -6 34 -33 -10 -18 -9 -21 1 -14
7 4 31 7 54 7 23 -1 30 1 15 4 -50 9 -38 18 25 18 37 0 65 -4 65 -10 -1 -14
-36 -55 -48 -55 -11 0 -42 -33 -42 -44 0 -13 133 4 158 20 12 8 22 22 22 30 0
13 -7 15 -30 11 -16 -4 -30 -3 -30 1 1 20 21 34 53 35 20 0 33 5 30 10 -3 5
-14 7 -24 4 -26 -7 -36 13 -14 26 10 5 31 23 46 38 19 19 33 26 48 22 14 -3
23 0 27 11 8 20 6 21 -24 31 -12 3 -21 3 -20 -2 2 -4 0 -9 -4 -10 -17 -6 -28
-3 -28 8 0 5 5 7 10 4 6 -3 10 0 10 8 0 17 -44 42 -59 33 -7 -4 -11 1 -11 13
0 25 -30 28 -31 4 0 -15 -2 -15 -8 2 -5 12 -4 23 3 27 10 7 -6 13 -27 9 -5 -1
-6 3 -2 9 3 5 1 10 -4 10 -6 0 -11 -7 -11 -15 0 -13 -3 -13 -20 -3 -20 13 -20
13 2 18 15 4 25 16 29 35 6 29 7 29 8 4 1 -25 31 -64 31 -41 0 6 -5 14 -11 18
-6 3 -8 15 -6 26 4 14 0 22 -13 25 -17 5 -17 6 -2 22 10 10 20 16 25 14 12 -7
8 22 -5 35 -7 7 -9 12 -5 12 4 0 3 9 -3 20 -6 11 -16 18 -23 15 -7 -4 5 8 26
25 57 49 47 100 -20 100 -22 0 -36 -6 -43 -19 -14 -28 -12 -57 5 -71 22 -18
18 -26 -12 -24 -16 0 -52 -7 -82 -18 -30 -10 -55 -18 -57 -18 -1 0 0 9 3 20 4
15 0 20 -16 20 -13 0 -21 -6 -21 -18 0 -10 -12 -22 -29 -29 -28 -10 -30 -9
-39 17 -20 55 -162 128 -227 116 -46 -9 -57 15 -24 50 51 54 18 146 -58 160
-35 7 -100 -14 -134 -43 -16 -13 -33 -11 -76 10 -36 16 -27 24 31 29 31 3 76
16 104 30 33 17 58 24 80 20 36 -5 53 18 35 47 -8 12 -4 25 13 51 25 38 44
122 40 180 -5 75 -71 161 -155 203 -37 17 -63 22 -131 22 -81 0 -110 -8 -191
-52 -4 -2 -2 16 4 40 8 35 6 54 -7 92 -11 35 -13 52 -5 61 6 7 9 28 7 46 -2
24 -10 36 -31 46 -24 12 -32 11 -60 -6 -25 -14 -39 -17 -57 -10 -34 13 -120 4
-161 -17 -78 -40 -120 -100 -129 -184 l-5 -54 -47 -14 c-25 -7 -70 -29 -100
-50 -32 -22 -63 -35 -80 -34 -28 1 -44 -23 -33 -51 3 -8 -6 -35 -20 -61 -24
-42 -29 -46 -56 -40 -37 7 -76 -12 -83 -42 -5 -20 -12 -22 -59 -21 -38 0 -64
-6 -91 -22 -23 -14 -46 -20 -58 -16 -27 8 -51 -14 -43 -43 4 -19 1 -23 -16
-23 -11 0 -37 -16 -56 -35 -30 -30 -34 -40 -32 -82 1 -26 -4 -61 -10 -76 -25
-62 -6 -154 42 -205 33 -36 88 -60 147 -66 53 -5 65 -12 138 -84 28 -27 32
-36 22 -47 -7 -8 -18 -15 -25 -15 -7 0 -23 -8 -36 -19 -13 -10 -29 -16 -34
-15 -6 2 -19 -24 -29 -58 -11 -35 -20 -64 -20 -65 -1 -1 -12 -4 -26 -8 -23 -5
-26 -3 -25 22 0 21 -5 28 -19 28 -10 0 -24 -8 -30 -18 -9 -15 -7 -21 8 -33 19
-13 18 -14 -12 -14 -43 0 -47 2 -44 23 6 30 -27 57 -68 57 -46 0 -74 -28 -72
-73 l1 -33 -212 -32 c-117 -18 -216 -32 -221 -32 -4 0 5 15 22 34 16 19 32 40
34 46 3 10 12 10 42 0 112 -37 226 40 226 152 0 108 -108 171 -227 133 -20 -6
-23 -4 -23 17 0 23 -24 66 -44 80 -7 5 -11 65 -11 160 0 141 -2 158 -26 220
-15 37 -45 96 -67 130 -47 72 -47 92 -1 146 16 18 36 46 44 62 9 17 18 30 22
30 3 0 3 -3 0 -6 -3 -4 -2 -15 4 -25 10 -20 59 -27 59 -9 0 20 23 9 54 -24
136 -148 418 -93 489 96 l18 47 33 -14 c119 -50 290 -7 358 88 13 18 45 56 71
86 72 79 90 136 71 229 -8 42 -67 108 -118 134 -52 26 -156 29 -203 4 -18 -9
-56 -21 -85 -27 -29 -6 -70 -20 -92 -31 -54 -27 -118 -97 -137 -149 -11 -28
-22 -43 -30 -40 -97 28 -119 32 -174 26 -142 -15 -265 -135 -265 -259 0 -30
-15 -56 -31 -56 -3 0 -9 23 -13 51 -18 135 -126 228 -266 229 -88 0 -154 -25
-212 -81 -41 -39 -52 -44 -82 -41 -42 5 -118 -30 -152 -71 -17 -20 -24 -41
-24 -71 l0 -42 -77 -19 c-43 -10 -91 -17 -107 -16 -24 2 -36 -4 -57 -31 -25
-29 -30 -32 -48 -20 -30 18 -58 15 -75 -9 -10 -15 -12 -29 -6 -43 7 -20 5 -22
-21 -18 -38 6 -62 -14 -56 -47 4 -19 -5 -40 -35 -80 -56 -74 -107 -190 -122
-275 -7 -40 -17 -70 -23 -69 -28 6 -309 186 -317 203 -9 20 -24 27 -72 36 -43
8 -84 33 -84 52 0 15 -2 15 -10 2 -8 -12 -10 -12 -10 -1 0 8 -3 12 -6 8 -4 -3
-24 3 -45 14 -28 14 -39 26 -39 42 0 13 -6 29 -12 36 -19 18 -17 91 3 91 30 0
54 49 31 64 -4 2 -8 -8 -7 -22 0 -22 -4 -27 -25 -27 -19 0 -25 5 -24 22 0 12
-4 19 -9 16 -5 -3 -7 -14 -4 -24 4 -15 0 -19 -18 -19 -31 0 -46 -21 -43 -60 2
-19 -2 -35 -9 -37 -7 -3 -11 7 -11 27 1 17 -4 36 -10 42 -16 16 -64 13 -77 -6
-11 -14 -23 -12 -116 28 -464 194 -823 269 -1349 282 -217 6 -487 -6 -716 -33
l-51 -5 -7 128 c-10 179 -24 305 -46 400 -19 79 -55 182 -68 196 -4 3 -41 -21
-82 -53z m6186 -505 c11 -3 25 -19 31 -35 8 -21 20 -31 43 -35 76 -16 81 -154
8 -222 l-26 -23 -48 31 c-60 38 -137 61 -212 63 -65 3 -70 10 -52 76 28 104
151 173 256 145z m-4796 -248 c318 -43 643 -118 690 -161 11 -10 26 -15 35
-11 16 6 162 -39 179 -55 6 -5 -1 -9 -16 -9 -47 0 -44 -50 3 -51 85 -1 86 -2
82 -19 -3 -10 -1 -20 4 -23 5 -3 8 9 7 28 -2 19 1 37 5 39 9 6 137 -46 153
-62 7 -7 -1 -10 -25 -9 -49 1 -80 -27 -75 -69 3 -27 1 -31 -19 -31 -50 0 -72
-52 -32 -74 33 -17 73 4 66 36 -5 29 -5 28 25 14 55 -24 113 33 89 89 l-11 27
21 -27 c23 -31 41 -35 59 -13 10 12 21 10 76 -18 61 -30 64 -33 59 -62 -4 -26
-4 -27 5 -7 11 26 24 27 68 4 l32 -18 -45 -12 c-26 -7 -50 -10 -54 -7 -12 7
-35 -22 -65 -79 -31 -58 -34 -117 -8 -168 l19 -36 -46 14 c-25 8 -47 14 -48
14 -2 0 -3 7 -3 16 0 10 -7 14 -22 12 -30 -4 -35 -34 -9 -43 13 -4 21 -15 21
-29 0 -22 -3 -23 -45 -19 -39 5 -47 2 -75 -25 -22 -23 -30 -40 -30 -66 0 -20
-4 -36 -9 -36 -5 0 -64 14 -132 31 -215 53 -205 50 -186 60 22 13 22 35 0 48
-16 10 -16 11 5 17 35 10 24 40 -13 36 -38 -4 -41 -8 -25 -28 11 -13 11 -17 0
-24 -7 -4 -11 -18 -8 -32 l5 -24 -96 23 c-103 25 -637 132 -761 153 -41 7
-110 18 -153 26 -125 22 -271 42 -427 59 -80 8 -181 20 -224 25 -44 6 -109 10
-145 10 -36 0 -73 5 -81 10 -13 8 -15 49 -14 274 0 146 4 269 8 273 33 33 953
40 1186 9z m4086 -337 c19 -11 39 -29 44 -39 15 -28 12 -93 -5 -116 -14 -19
-14 -18 -15 3 0 29 -21 39 -95 48 -33 4 -75 16 -92 27 -28 16 -31 23 -23 39
15 26 78 58 119 59 18 0 49 -9 67 -21z m-2343 -289 l105 -61 7 -60 c4 -33 6
-61 4 -62 -68 -38 -143 -66 -166 -61 -16 3 -39 1 -52 -4 -17 -6 -41 -3 -82 12
-33 11 -59 23 -59 26 0 3 19 12 42 20 62 22 101 76 106 149 2 33 -1 67 -7 80
-7 11 -10 21 -7 21 2 0 51 -27 109 -60z m-335 -257 c117 -35 152 -50 147 -60
-3 -8 -5 -33 -5 -56 0 -70 -7 -74 -91 -51 -66 18 -74 23 -74 44 0 33 -34 40
-42 10 -6 -23 -5 -23 -96 1 l-38 10 26 30 c25 31 34 82 15 94 -11 7 -14 25 -3
25 4 0 76 -21 161 -47z m1791 -175 c42 -109 38 -143 -22 -192 -51 -41 -116
-43 -170 -6 -31 21 -68 76 -56 83 3 1 23 20 47 41 33 32 50 40 83 42 30 1 49
10 68 28 31 32 39 32 50 4z m-260 -173 c11 -19 34 -43 51 -54 l31 -19 -25 -6
c-14 -3 -52 -9 -85 -12 -54 -6 -62 -4 -96 21 l-36 28 68 37 c37 21 69 38 70
39 0 0 10 -15 22 -34z m-2504 -789 c74 -1 90 -4 93 -17 4 -22 -13 -27 -111
-35 -45 -4 -94 -13 -109 -20 -14 -8 -68 -18 -120 -24 -51 -5 -124 -15 -163
-21 -183 -28 -151 -32 113 -14 214 14 252 13 252 -6 0 -17 12 -16 -505 -59
-60 -5 -162 -14 -225 -20 -63 -6 -198 -17 -300 -25 -102 -8 -261 -22 -355 -30
-140 -12 -606 -49 -872 -69 -54 -5 -66 -2 -99 21 -21 14 -62 34 -91 45 -29 11
-60 29 -69 39 -16 18 -16 19 14 19 21 0 32 5 32 14 0 19 54 36 110 34 25 0 95
2 155 6 61 3 153 9 205 11 52 3 124 8 160 10 36 3 112 7 170 10 58 3 177 12
265 20 88 8 225 18 305 21 164 7 227 10 355 18 162 11 288 17 435 21 133 4
146 6 159 24 8 13 24 21 42 21 16 0 29 5 29 11 0 7 7 8 18 3 9 -4 57 -8 107
-8z m1295 -448 c0 -17 -7 -40 -17 -50 -15 -17 -15 -18 5 -18 25 0 52 25 52 50
0 10 6 20 13 22 6 2 250 5 542 6 344 1 531 5 533 12 2 5 24 10 49 10 l45 0 -7
-42 c-10 -57 -11 -58 -51 -58 -28 0 -35 -4 -32 -17 3 -15 17 -19 78 -24 41 -3
110 -14 154 -24 67 -15 84 -16 118 -4 29 9 44 10 57 2 10 -6 52 -17 94 -23 61
-10 93 -10 152 -1 41 7 80 9 85 6 6 -4 26 -7 44 -7 18 0 43 -8 56 -18 l25 -18
-27 -7 c-33 -8 -27 -35 7 -35 13 0 35 -4 48 -9 58 -22 169 -39 198 -31 33 10
32 7 -13 -44 -10 -11 -18 -22 -19 -25 -3 -27 -11 -43 -39 -83 -31 -43 -32 -49
-20 -78 11 -27 10 -33 -6 -52 -11 -11 -33 -27 -50 -34 -35 -15 -50 -31 -55
-58 -3 -13 -21 -24 -56 -36 -29 -9 -67 -28 -86 -42 -33 -26 -123 -58 -149 -54
-7 1 -18 5 -25 9 -6 4 -18 4 -27 1 -9 -3 -23 0 -32 7 -14 11 -12 15 17 28 18
9 34 21 36 28 5 13 -11 17 -182 34 -66 7 -137 18 -159 26 -58 20 -90 17 -101
-9 -6 -13 -24 -27 -42 -32 -31 -8 -48 -30 -20 -24 6 1 55 -8 107 -21 52 -12
106 -24 119 -27 13 -3 21 -8 17 -11 -15 -16 -448 39 -846 106 -210 36 -253 46
-258 59 -2 6 -9 12 -15 12 -6 0 -19 8 -29 17 -16 15 -22 15 -40 4 -19 -12 -24
-11 -43 10 -12 13 -41 35 -65 48 l-43 23 -16 -20 c-20 -26 -107 -40 -140 -22
-28 14 -51 20 -124 27 l-58 6 7 116 c6 101 13 145 41 261 3 14 11 31 17 39 6
8 9 24 8 36 -2 12 6 32 17 46 17 20 20 21 21 7 0 -19 20 -26 20 -8 0 6 7 10
15 10 8 0 15 -4 15 -10 0 -18 17 -10 30 15 20 37 50 33 50 -7z m1683 -10 c70
-7 113 -14 105 -19 -11 -7 -11 -9 0 -9 7 0 11 -4 8 -9 -4 -5 4 -7 15 -4 16 4
20 2 17 -8 -3 -10 -31 -16 -97 -21 -51 -3 -98 -11 -104 -17 -16 -16 -58 -14
-55 3 4 17 -6 19 -48 11 -21 -3 -58 3 -105 19 -41 13 -93 27 -116 31 -38 6
-53 21 -38 37 8 8 287 -1 418 -14z m-2053 -212 c31 -11 35 -17 38 -54 3 -37 6
-42 28 -42 32 0 32 -28 -1 -40 -23 -9 -25 -15 -25 -72 -1 -243 -82 -718 -140
-817 -14 -24 -12 -3 10 106 64 321 97 682 75 823 -11 69 -29 89 -85 91 -14 0
-34 4 -45 9 -33 14 105 10 145 -4z m2930 -41 c0 -5 5 -17 10 -25 9 -13 11 -13
20 0 6 10 10 11 10 3 0 -8 14 -13 35 -13 21 0 35 -5 36 -12 0 -10 2 -10 6 0 2
6 10 12 16 12 5 0 7 -3 4 -6 -4 -4 2 -19 13 -33 15 -22 25 -26 53 -23 19 2 38
-1 41 -7 13 -21 26 -11 26 19 0 17 5 30 10 30 6 0 9 3 9 8 -5 28 3 72 12 72 8
0 10 -19 5 -62 -5 -47 -13 -67 -29 -80 -18 -14 -19 -18 -7 -33 13 -16 6 -25
-70 -99 -47 -45 -91 -90 -98 -101 -11 -17 -12 -13 -7 30 7 68 -9 90 -56 81
-19 -4 -55 -10 -81 -13 l-47 -5 5 59 c9 102 15 125 41 151 22 22 23 28 13 47
-16 30 -3 53 16 28 7 -10 14 -22 14 -28z m-3580 -181 c0 -18 5 -24 23 -24 17
0 19 -2 8 -9 -12 -8 -9 -11 12 -16 15 -4 25 -11 22 -15 -2 -4 22 -29 55 -54
56 -44 66 -45 61 -7 -3 15 8 10 64 -33 55 -42 61 -49 69 -73 12 -39 -11 -33
-98 23 -88 58 -119 65 -75 18 l24 -26 -40 22 c-22 12 -58 36 -79 53 -21 17
-37 25 -34 17 2 -8 71 -73 152 -144 l147 -130 -6 -50 c-42 -336 -78 -486 -117
-486 -26 0 -160 48 -175 63 -9 9 -16 88 -22 272 -9 229 -14 525 -12 608 1 34
21 26 21 -9z m886 -219 c121 -18 198 -20 188 -4 -7 12 82 8 191 -10 118 -19
211 -32 290 -41 100 -11 196 -28 203 -35 3 -3 -15 -5 -39 -5 l-44 -1 31 -13
c41 -18 134 -31 134 -18 0 5 -15 14 -32 20 -29 9 -24 10 37 7 124 -7 231 -24
432 -71 59 -14 153 -31 208 -39 55 -8 134 -21 175 -30 41 -9 96 -19 122 -22
26 -3 45 -9 42 -14 -3 -5 2 -9 10 -9 9 0 16 -4 16 -9 0 -5 12 -12 28 -15 52
-12 111 -48 105 -63 -6 -15 -15 -15 -101 3 -27 5 -31 4 -26 -10 5 -12 0 -16
-21 -16 -14 0 -35 4 -45 10 -10 5 -51 12 -92 15 -69 6 -71 5 -43 -9 24 -11 26
-14 10 -15 -11 0 -37 3 -58 8 -21 5 -39 5 -43 0 -3 -5 -12 -5 -22 0 -10 5 -40
5 -72 0 -50 -8 -193 2 -242 17 -22 6 -112 15 -208 20 -68 3 -190 18 -370 45
-170 26 -207 30 -237 30 -18 0 -33 4 -33 9 0 5 -17 12 -37 15 -21 4 -60 13
-86 22 -27 8 -57 13 -68 10 -10 -3 -21 -2 -23 2 -3 4 -50 16 -105 26 -56 10
-101 22 -101 27 0 5 -6 8 -12 7 -7 -1 -20 -1 -28 0 -12 1 -13 3 -1 10 11 7 10
11 -7 20 -11 6 -28 8 -36 5 -9 -4 -22 -2 -29 4 -6 6 -28 12 -47 14 -27 2 -36
8 -38 26 -4 24 7 29 25 11 7 -7 29 -14 50 -16 35 -4 57 -5 151 -4 17 0 32 5
32 11 0 17 -60 36 -155 49 -96 13 -108 17 -100 32 8 12 4 12 121 -6z m-4352
-214 c29 -28 39 -32 72 -28 54 7 97 18 112 30 9 7 12 -7 12 -67 0 -81 6 -89
51 -66 15 9 19 7 19 -5 0 -9 -14 -21 -31 -27 l-32 -11 7 -161 7 -161 37 -38
37 -39 -39 16 c-48 20 -44 21 -48 -11 -4 -35 -38 -53 -99 -53 -40 0 -52 5 -87
38 l-40 37 6 245 7 245 -52 55 c-35 36 -53 49 -53 38 0 -9 5 -20 10 -23 8 -5
7 -11 0 -20 -7 -8 -9 -24 -5 -36 7 -20 -6 -38 -27 -39 -5 0 -8 37 -8 83 l0 84
56 -27 c30 -15 70 -42 88 -59z m1466 81 c0 -5 -15 -29 -33 -53 -30 -39 -42
-64 -78 -157 -5 -13 -25 -30 -44 -37 -26 -12 -35 -22 -40 -48 -4 -18 -20 -48
-36 -66 -24 -28 -31 -31 -44 -21 -20 17 -19 43 6 91 27 53 97 129 119 129 18
0 51 44 88 117 12 23 30 44 39 46 10 3 19 5 21 6 1 0 2 -3 2 -7z m2841 -77
c37 -5 48 -11 53 -28 7 -28 -19 -49 -51 -41 -29 8 -29 1 0 -29 26 -27 64 -43
127 -52 25 -3 75 -13 111 -22 76 -18 107 -13 145 22 17 16 39 25 60 25 64 0
71 11 23 36 -61 32 -25 32 95 -1 50 -13 105 -24 121 -24 17 1 73 -6 125 -15
52 -10 147 -23 210 -31 148 -19 131 -16 484 -75 65 -11 135 -20 154 -20 20 0
83 -11 141 -24 167 -38 210 -46 244 -46 54 0 167 -60 167 -89 0 -14 -37 -24
-66 -17 -32 8 -49 -1 -34 -19 6 -7 10 -17 9 -21 -4 -21 3 -32 25 -42 15 -7 26
-22 30 -44 7 -31 24 -159 25 -184 1 -15 112 -64 145 -64 14 0 26 -4 26 -10 0
-5 -6 -10 -14 -10 -7 0 -19 -7 -26 -15 -7 -9 -19 -14 -27 -11 -8 3 -11 1 -8
-4 9 -14 -9 -12 -64 4 -25 8 -102 29 -171 46 -69 17 -152 44 -185 61 -69 34
-118 39 -113 12 7 -41 -169 -38 -203 3 -9 11 -6 16 15 24 47 17 23 50 -37 50
-40 0 -133 26 -155 43 -31 24 -131 57 -174 57 -60 0 -77 7 -89 36 -6 18 -16
24 -39 24 -16 0 -44 9 -62 20 -25 15 -51 20 -103 20 -57 1 -78 5 -110 25 -22
14 -55 25 -74 25 -23 0 -39 7 -51 23 -10 13 -38 29 -61 36 -41 12 -43 12 -71
-18 -34 -36 -32 -36 -88 -16 -23 8 -53 12 -66 9 -14 -4 -24 -2 -24 5 0 15 -47
36 -115 50 -33 7 -77 24 -97 37 -48 31 -59 30 -90 -3 -34 -37 -38 -53 -27
-101 9 -43 -10 -102 -34 -102 -36 1 -56 14 -59 39 -5 40 -45 40 -87 1 -18 -18
-35 -29 -39 -26 -3 4 0 12 6 18 9 9 8 16 -4 30 -15 16 -14 28 16 155 18 76 38
165 44 198 14 74 21 86 49 81 12 -3 43 -8 68 -11z m-1658 -392 c-2 -16 3 -55
9 -88 12 -55 16 -62 52 -79 37 -18 40 -18 52 -2 10 14 20 16 45 11 18 -4 39
-14 47 -22 16 -15 43 -14 49 2 2 6 -7 15 -19 20 -28 13 -39 42 -12 30 11 -4
27 -7 36 -7 10 0 23 -8 28 -18 6 -11 31 -28 57 -40 34 -15 44 -23 35 -32 -8
-8 -18 -5 -38 11 -32 26 -49 27 -39 4 19 -46 24 -90 14 -120 -6 -18 -13 -33
-16 -33 -4 0 -21 11 -39 25 -18 14 -42 25 -53 25 -12 0 -21 7 -21 15 0 16 -9
19 -33 9 -8 -3 -13 -13 -10 -24 7 -28 -12 -32 -42 -8 l-28 22 24 8 c23 9 23
10 5 20 -14 8 -21 7 -27 -3 -10 -16 -8 -18 -89 85 -36 45 -74 83 -91 89 -37
15 -36 21 6 47 19 12 35 26 35 31 0 5 11 14 25 19 14 5 25 14 25 20 0 5 4 10
8 10 5 0 7 -12 5 -27z m-2153 -109 c6 -14 10 -59 10 -100 0 -72 -1 -74 -24
-74 -14 0 -28 -4 -31 -10 -12 -19 -53 -10 -84 19 -32 30 -42 71 -16 71 20 0
83 57 101 91 18 36 32 37 44 3z m-800 -104 c0 -15 -7 -20 -29 -20 -17 0 -32
-4 -35 -9 -3 -4 6 -6 20 -3 l25 4 -17 -35 c-18 -38 -33 -40 -35 -4 -1 16 -3
17 -6 5 -2 -9 3 -27 11 -40 18 -27 7 -58 -12 -35 -7 8 -23 12 -37 9 -38 -7
-74 21 -68 52 3 14 10 26 17 26 6 0 5 4 -3 9 -22 14 10 42 40 35 47 -9 78 -7
101 9 29 20 28 20 28 -3z m7335 -81 c6 -24 16 -35 52 -50 24 -10 51 -19 59
-19 21 0 28 -25 14 -50 -11 -20 -13 -21 -30 -5 -10 9 -21 12 -24 7 -3 -5 -70
-10 -148 -11 -79 -1 -158 -4 -175 -7 -20 -4 -33 -2 -33 4 0 6 -3 18 -6 26 -4
12 -2 15 9 10 15 -5 46 31 60 69 5 14 14 16 47 12 129 -16 118 -18 135 15 20
38 32 38 40 -1z m-4075 -353 c0 -8 -15 -22 -32 -32 -94 -49 -130 -64 -151 -64
-13 0 -32 -7 -43 -15 -10 -8 -30 -15 -44 -15 -14 0 -43 -12 -65 -25 -23 -14
-55 -25 -76 -25 -19 0 -40 -5 -46 -11 -7 -7 -19 -9 -29 -5 -16 6 -16 8 1 26
10 11 24 20 32 20 7 0 30 9 50 20 21 11 46 20 55 20 10 0 18 5 18 10 0 6 15
10 34 10 19 0 49 8 68 17 61 30 68 33 85 33 10 1 41 12 68 25 58 28 75 30 75
11z m-1111 -250 c9 -7 63 -20 121 -29 123 -18 184 -38 188 -62 3 -15 -1 -17
-35 -10 l-38 7 23 -24 c12 -13 22 -27 22 -30 0 -3 -21 -3 -46 0 -27 3 -55 0
-68 -8 -30 -15 -67 3 -133 65 -27 25 -51 45 -55 45 -10 0 -48 42 -48 52 0 13
52 9 69 -6z m51 -156 c-10 -19 -30 -27 -178 -74 -46 -15 -100 -37 -120 -50
-20 -13 -40 -24 -45 -24 -4 -1 -24 -6 -44 -11 -30 -8 -40 -7 -54 5 -22 20 -31
54 -15 54 7 0 26 6 42 14 16 8 44 17 62 19 18 3 38 10 45 15 7 5 31 13 54 17
24 4 80 19 125 34 94 30 144 30 128 1z"/>
<path d="M8050 3512 c-8 -4 -16 -17 -18 -28 -4 -30 39 -43 169 -51 186 -10
273 21 118 43 -41 5 -89 18 -108 27 -34 17 -131 22 -161 9z"/>
<path d="M7247 2763 c-10 -3 -16 -10 -14 -16 4 -12 24 -20 122 -51 28 -8 70
-22 95 -31 61 -23 133 -37 205 -41 33 -2 89 -5 125 -7 36 -2 73 -1 84 3 16 6
14 9 -18 28 -46 27 -60 27 -85 0 -22 -23 -17 -23 -173 18 -9 3 -18 15 -20 27
-4 26 -38 35 -50 13 -5 -9 -22 -16 -38 -16 -39 0 -131 35 -158 60 -21 20 -38
23 -75 13z"/>
<path d="M6573 7150 c-25 -10 -43 -39 -43 -69 0 -22 44 -61 70 -61 33 0 70 39
70 75 0 18 -6 37 -13 43 -19 16 -60 22 -84 12z"/>
<path d="M2949 6920 c-1 -3 -1 -9 0 -13 1 -5 -3 -5 -9 -2 -6 4 -22 4 -36 1
-18 -5 -24 -13 -25 -34 0 -26 -1 -26 -11 -5 -9 18 -14 20 -37 12 -14 -6 -29
-16 -33 -22 -10 -16 -10 -100 0 -93 4 2 13 -7 19 -21 10 -21 10 -24 -3 -19
-10 4 -14 -2 -14 -20 0 -19 -7 -29 -30 -37 -35 -13 -34 -2 -16 -177 29 -280
89 -531 159 -666 l16 -32 -57 -7 c-108 -12 -130 -22 -137 -58 -4 -17 -9 -40
-12 -50 -4 -16 -1 -18 17 -12 12 4 47 8 78 10 148 8 297 18 353 24 12 2 16 50
5 54 -18 7 -91 208 -85 233 1 5 -1 16 -4 24 -11 29 -32 233 -46 465 -13 219
-21 294 -30 299 -4 3 -8 21 -9 42 -2 20 -7 45 -13 55 -6 12 -6 19 0 19 5 0 7
9 4 19 -4 17 -41 26 -44 11z"/>
<path d="M6863 6796 c-33 -15 -53 -42 -53 -74 0 -28 35 -69 65 -76 50 -13 115
38 115 89 0 22 -42 64 -70 69 -14 3 -39 -1 -57 -8z"/>
<path d="M7055 6746 c-14 -14 -30 -26 -35 -26 -16 0 -24 -23 -21 -69 3 -56 14
-71 57 -71 52 0 81 47 55 89 -6 9 -4 19 5 29 19 19 14 41 -13 59 -20 14 -24
13 -48 -11z"/>
<path d="M7342 6720 c-31 -13 -48 -54 -35 -83 10 -21 9 -22 -23 -19 -25 3 -39
-2 -58 -22 -63 -62 4 -152 83 -111 35 18 49 56 34 95 -9 24 -8 26 12 22 13 -2
32 1 43 7 16 8 27 7 51 -6 29 -17 31 -17 58 3 34 25 41 59 17 85 -18 20 -69
26 -79 9 -4 -6 -16 -3 -32 10 -28 22 -37 23 -71 10z"/>
<path d="M6401 6394 c-53 -44 -34 -117 36 -138 28 -9 88 16 102 42 47 87 -61
161 -138 96z"/>
<path d="M6615 6217 c-17 -8 -45 -30 -62 -50 -54 -61 -55 -139 -5 -199 63 -75
192 -78 261 -5 13 14 29 23 35 21 20 -8 42 24 28 38 -7 7 -12 30 -12 53 -1 48
-25 95 -64 126 -36 28 -135 37 -181 16z"/>
<path d="M8402 6077 c-45 -48 -14 -117 51 -117 64 0 103 83 59 123 -28 25 -84
22 -110 -6z"/>
<path d="M10749 5780 c-9 -5 -22 -23 -29 -40 -22 -53 19 -110 80 -110 34 0 80
48 80 84 0 51 -24 76 -73 76 -23 0 -49 -5 -58 -10z"/>
<path d="M3040 5649 c0 -4 -72 -12 -160 -19 -88 -7 -160 -17 -160 -21 0 -22
25 -59 37 -55 7 3 13 0 13 -7 0 -9 2 -9 8 -1 4 7 47 12 113 13 92 2 111 -1
142 -19 21 -12 66 -26 101 -30 47 -6 81 -18 123 -43 50 -30 244 -117 261 -117
3 0 -23 21 -58 47 -71 50 -154 129 -130 120 11 -3 16 2 17 17 0 11 -1 15 -4 9
-3 -7 -9 -13 -13 -13 -11 0 -65 49 -65 59 0 3 -9 19 -21 35 -20 28 -24 29
-112 30 -51 0 -92 -2 -92 -5z"/>
<path d="M3908 5177 c12 -13 22 -28 22 -34 0 -11 118 -97 224 -164 l70 -43
133 -10 c137 -9 333 5 333 25 0 5 -1 9 -3 9 -2 0 -47 18 -101 40 -81 33 -334
129 -383 145 -7 3 -13 0 -13 -5 0 -6 8 -10 18 -10 14 0 15 -2 2 -10 -8 -5 -10
-10 -4 -10 5 0 15 5 22 12 9 9 12 9 12 0 0 -7 -7 -15 -15 -18 -8 -4 -12 -10
-9 -15 3 -5 -19 0 -48 12 -29 12 -64 25 -76 30 -13 5 -27 7 -31 4 -5 -2 -28 5
-51 16 -24 12 -61 27 -84 35 l-40 15 22 -24z"/>
<path d="M9943 4523 c4 -27 9 -60 13 -75 9 -38 -6 -35 -34 7 -12 19 -27 35
-32 35 -14 0 -12 -34 2 -48 7 -7 8 -12 3 -12 -5 0 -26 16 -46 36 -35 35 -59
38 -59 10 0 -8 12 -21 26 -31 19 -12 23 -20 15 -28 -21 -21 -10 -36 71 -87 98
-63 118 -70 118 -42 0 12 9 26 21 32 16 9 19 18 14 37 -5 20 -2 24 12 21 10
-2 19 -13 21 -26 2 -15 10 -22 24 -22 11 0 26 -7 33 -16 10 -15 14 -14 41 11
20 19 36 25 54 22 14 -3 41 -2 60 2 28 5 35 12 35 31 0 13 6 25 13 28 6 2 12
-3 12 -12 0 -23 47 -51 63 -38 7 6 28 11 47 11 38 0 116 8 168 17 23 5 32 12
32 25 0 11 5 28 12 39 15 23 5 35 -19 25 -27 -12 -106 -13 -121 -2 -9 7 -17 6
-24 -1 -7 -7 -21 -12 -33 -12 -12 0 -26 -5 -32 -11 -7 -7 -17 -8 -28 -2 -16
10 -86 -3 -113 -20 -7 -5 -19 -4 -27 3 -9 7 -22 9 -32 5 -35 -15 -117 -12
-129 4 -10 13 -12 12 -18 -6 -5 -16 -12 -20 -29 -16 -12 3 -27 10 -33 14 -17
13 -24 0 -25 -45 l-1 -41 -12 55 c-7 30 -19 81 -25 113 -9 40 -17 57 -28 57
-13 0 -14 -9 -10 -47z"/>
<path d="M1045 4424 c-50 -25 -69 -61 -70 -126 0 -52 3 -61 33 -90 28 -28 39
-33 82 -33 40 0 54 5 79 29 58 56 65 136 15 189 -44 48 -87 57 -139 31z"/>
<path d="M1576 4349 c-14 -17 -29 -42 -32 -55 -11 -43 2 -120 25 -153 22 -31
22 -31 2 -31 -19 0 -21 -6 -21 -74 0 -64 3 -76 25 -100 43 -47 56 -29 55 79 0
33 0 74 0 90 1 84 -13 275 -20 275 -5 0 -20 -14 -34 -31z"/>
<path d="M1170 3692 c0 -10 -11 -24 -25 -30 -15 -7 -25 -8 -25 -2 0 6 -7 10
-16 10 -12 0 -14 -3 -6 -13 11 -13 -7 -47 -25 -47 -13 0 -43 -33 -43 -47 0 -9
13 -26 80 -101 25 -29 25 -36 1 -22 -45 23 -65 11 -64 -37 1 -7 -3 -10 -8 -7
-5 3 -9 -1 -9 -8 -1 -9 -5 -7 -14 5 -11 14 -15 15 -25 4 -6 -8 -8 -17 -4 -20
3 -4 1 -7 -6 -7 -7 0 -11 6 -8 13 3 6 8 19 11 27 4 10 -3 25 -17 39 -21 19
-25 20 -30 7 -4 -9 -2 -16 4 -16 6 0 7 -5 3 -12 -5 -8 -13 -4 -26 11 -21 27
-24 45 -5 38 13 -4 47 29 47 47 0 20 -15 32 -37 32 -13 0 -23 -6 -23 -12 0 -7
-10 -21 -23 -31 -13 -10 -22 -23 -20 -30 2 -6 -1 -14 -6 -18 -6 -3 -11 -20
-11 -36 0 -25 5 -30 29 -35 40 -8 48 -32 13 -41 -15 -4 -33 -6 -39 -5 -7 2
-10 -3 -7 -12 3 -8 1 -17 -5 -21 -16 -10 -13 -61 5 -79 8 -9 27 -16 41 -16 19
0 23 -3 16 -12 -6 -7 -13 -25 -17 -41 -8 -34 14 -46 49 -27 25 14 45 7 45 -16
0 -8 5 -14 10 -14 6 0 10 -7 10 -15 0 -8 4 -15 10 -15 5 0 7 6 4 13 -3 9 7 17
27 23 18 5 34 15 37 22 6 18 -37 15 -44 -3 -5 -12 -9 -13 -20 -4 -10 8 -11 16
-5 23 7 8 4 22 -9 41 -15 23 -26 29 -47 27 -24 -2 -26 -1 -10 9 10 6 22 20 27
32 7 18 9 18 9 5 2 -35 21 -17 21 18 0 19 -4 33 -9 30 -5 -3 -14 0 -20 7 -8
11 -3 13 26 12 25 0 42 6 55 20 16 16 18 17 13 3 -4 -10 -3 -18 3 -18 5 0 12
-9 15 -20 6 -23 -3 -26 -23 -7 -7 6 -1 -5 15 -25 15 -21 23 -38 19 -38 -5 0
-15 9 -22 21 l-13 21 -19 -22 c-19 -22 -16 -58 6 -67 8 -3 11 -10 7 -17 -3 -6
-2 -7 3 -3 5 5 10 13 10 18 1 5 2 14 3 19 0 6 5 10 9 10 9 0 14 -35 16 -97 0
-23 4 -39 8 -37 5 3 11 -1 14 -10 3 -8 12 -12 20 -9 7 3 20 -1 28 -9 37 -33
47 -39 56 -33 12 7 2 -24 -14 -44 -8 -10 -5 -17 9 -27 25 -19 32 -18 40 5 6
18 44 36 55 25 3 -3 -8 -17 -24 -30 -15 -14 -26 -28 -22 -31 3 -3 1 -12 -6
-20 -8 -11 -7 -12 6 -7 9 3 16 2 16 -4 0 -15 53 -8 83 13 l29 19 -24 18 c-12
9 -18 18 -11 18 8 0 12 13 11 35 -1 40 11 58 52 75 35 15 37 20 10 43 -11 9
-20 24 -20 32 0 8 -7 15 -15 15 -8 0 -15 5 -15 10 0 6 13 10 29 10 21 0 30 6
35 23 18 67 -6 102 -64 93 -25 -4 -43 -1 -59 10 -27 19 -78 12 -96 -13 -11
-15 -15 -15 -43 5 -16 12 -35 22 -42 22 -6 0 -10 6 -7 13 2 7 21 12 46 12 35
0 47 5 68 29 17 20 23 36 19 52 -4 14 0 37 9 54 30 59 14 128 -37 160 -18 11
-33 27 -33 36 0 10 -6 19 -12 21 -8 3 -13 -4 -13 -15z"/>
<path d="M1550 3281 c-15 -29 -12 -48 10 -69 19 -18 19 -18 -14 -30 -19 -7
-51 -33 -72 -60 -21 -26 -43 -50 -49 -55 -6 -5 -5 -12 5 -20 8 -7 22 -26 31
-43 l16 -30 -29 4 c-15 2 -31 8 -34 13 -7 12 -24 11 -24 -1 0 -5 6 -10 14 -10
8 0 17 -7 20 -16 4 -11 14 -15 31 -12 42 9 28 -7 -25 -26 -51 -19 -61 -30 -35
-40 8 -3 14 -11 13 -18 -2 -9 9 -12 35 -11 27 2 37 -2 37 -12 0 -8 -7 -15 -15
-15 -18 0 -19 -2 0 -45 8 -22 25 -39 42 -46 25 -9 31 -7 50 16 13 14 23 37 23
50 0 33 -39 68 -67 60 -21 -5 -21 -4 -7 24 17 34 42 47 50 26 3 -7 17 -21 30
-30 22 -14 27 -14 54 0 17 9 30 20 30 25 0 17 31 39 51 35 13 -3 19 0 16 8 -2
7 -8 12 -13 13 -5 0 -17 4 -26 8 -16 7 -16 10 -2 37 29 57 -13 159 -72 173
-24 6 -25 8 -10 25 19 21 21 62 4 79 -18 18 -56 14 -68 -7z"/>
<path d="M549 3107 c-57 -35 -99 -74 -99 -92 0 -58 72 -105 128 -83 38 14 95
83 95 114 0 17 -12 35 -34 54 -41 35 -45 36 -90 7z"/>
<path d="M933 3103 c-7 -2 -13 -12 -13 -20 0 -12 -3 -13 -13 -5 -7 6 -32 14
-55 18 -42 7 -47 3 -43 -33 1 -7 -8 -32 -20 -57 l-21 -45 29 -38 c15 -21 35
-43 43 -50 22 -18 92 -16 118 3 13 9 26 13 29 10 4 -3 1 -6 -5 -6 -7 0 -12 -9
-12 -20 0 -25 31 -27 47 -2 13 22 -3 108 -24 130 -15 16 -17 26 -3 17 6 -3 10
1 10 9 0 9 -6 13 -14 10 -7 -3 -16 2 -19 10 -4 10 -1 16 8 16 8 0 15 5 15 10
0 6 -5 10 -10 10 -6 0 -10 8 -8 17 3 18 -17 26 -39 16z"/>
<path d="M10599 2889 c-9 -43 -9 -72 -4 -167 8 -128 10 -132 103 -157 63 -16
88 -5 119 50 63 110 -1 232 -133 254 -27 5 -57 12 -66 16 -10 4 -18 6 -19 4z"/>
<path d="M11150 2709 c-56 -25 -96 -62 -122 -113 l-20 -39 39 6 c44 7 204 86
247 121 16 13 25 29 22 35 -12 19 -117 13 -166 -10z"/>
</g>
</svg>
